<?xml version="1.0" encoding="iso-8859-1"?>
<!-- Generator: Adobe Illustrator 16.0.0, SVG Export Plug-In . SVG Version: 6.00 Build 0)  -->
<!DOCTYPE svg PUBLIC "-//W3C//DTD SVG 1.1//EN" "http://www.w3.org/Graphics/SVG/1.1/DTD/svg11.dtd">
<svg version="1.1" id="Capa_1" xmlns="http://www.w3.org/2000/svg" xmlns:xlink="http://www.w3.org/1999/xlink" x="0px" y="0px"
	 width="487.707px" height="487.707px" viewBox="0 0 487.707 487.707" style="enable-background:new 0 0 487.707 487.707;"
	 xml:space="preserve">
<g>
	<g>
		<path d="M436.29,334.688h-9.783h-2.506h-26.037l-4.619,19.125h33.162v73.736c3.328-0.545,6.713-0.898,10.166-0.898
			c3.051,0,6.033,0.315,8.959,0.774v-73.612h29.998l-42.133-166.148l-16.494,68.238l16.266,64.489L436.29,334.688z"/>
		<path d="M359.569,426.191c6.924,1.97,13.369,5.183,19.125,9.399V334.688h-19.125V426.191z"/>
		<path d="M209.113,484.896l0.096,2.792h16.486v-49.209c0-9.792,7.937-17.729,17.729-17.729h2.792
			c9.793,0,17.729,7.937,17.729,17.729v49.209h24.27l-0.096-0.679c-0.736-4.026-1.07-9.85-1.07-13.216
			c0-14.975,5.996-26.641,15.146-34.941V0h-114.75v333.646l0.22,1.042h-0.22v105.943
			C200.077,451.35,208.377,467.233,209.113,484.896z M206.57,382.5v-19.125h19.125V382.5H206.57z M206.57,334.688h19.125v19.125
			H206.57V334.688z M206.57,306h19.125v19.125H206.57V306z M206.57,277.312h19.125v19.125H206.57V277.312z M206.57,248.625h19.125
			v19.125H206.57V248.625z M206.57,219.938h19.125v19.125H206.57V219.938z M206.57,191.25h19.125v19.125H206.57V191.25z
			 M206.57,162.562h19.125v19.125H206.57V162.562z M206.57,133.875h19.125V153H206.57V133.875z M206.57,105.188h19.125v19.125
			H206.57V105.188z M206.57,76.5h19.125v19.125H206.57V76.5z M206.57,47.812h19.125v19.125H206.57V47.812z M254.382,66.938h-19.125
			V47.812h19.125V66.938z M254.382,95.625h-19.125V76.5h19.125V95.625z M254.382,124.312h-19.125v-19.125h19.125V124.312z
			 M254.382,153h-19.125v-19.125h19.125V153z M254.382,181.688h-19.125v-19.125h19.125V181.688z M254.382,210.375h-19.125V191.25
			h19.125V210.375z M254.382,239.062h-19.125v-19.125h19.125V239.062z M254.382,267.75h-19.125v-19.125h19.125V267.75z
			 M254.382,296.438h-19.125v-19.125h19.125V296.438z M254.382,325.125h-19.125V306h19.125V325.125z M254.382,353.812h-19.125
			v-19.125h19.125V353.812z M235.257,382.5v-19.125h19.125V382.5H235.257z M283.069,382.5h-19.125v-19.125h19.125V382.5z
			 M283.069,353.812h-19.125v-19.125h19.125V353.812z M283.069,325.125h-19.125V306h19.125V325.125z M283.069,296.438h-19.125
			v-19.125h19.125V296.438z M283.069,267.75h-19.125v-19.125h19.125V267.75z M283.069,239.062h-19.125v-19.125h19.125V239.062z
			 M283.069,210.375h-19.125V191.25h19.125V210.375z M283.069,181.688h-19.125v-19.125h19.125V181.688z M283.069,153h-19.125
			v-19.125h19.125V153z M283.069,124.312h-19.125v-19.125h19.125V124.312z M283.069,95.625h-19.125V76.5h19.125V95.625z
			 M283.069,66.938h-19.125V47.812h19.125V66.938z M283.069,38.25h-19.125V19.125h19.125V38.25z M254.382,38.25h-19.125V19.125
			h19.125V38.25z M206.57,19.125h19.125V38.25H206.57V19.125z"/>
		<polygon points="378.694,325.125 400.269,325.125 424.001,325.125 411.849,277.217 369.132,108.773 316.835,325.125 
			359.569,325.125 		"/>
		<path d="M130.07,487.688h57.375h12.116c-0.488-12.518-5.059-23.523-12.116-32.13c-9.123-11.131-22.491-18.149-37.647-18.149
			c-7.028,0-13.665,1.262-19.728,3.509v-6.99v-4.102v-95.138h-19.125v105.962v5.9v7.459c-2.831,3.309-5.24,7.047-7.047,11.255
			c-7.516-18.638-25.695-31.814-47.019-31.814c-1.09,0-2.199,0.066-3.299,0.144v-4.801v-4.781v-70.198h29.998l-4.848-19.125H68.22
			H56.065l2.859-14.2l7.86-32.886l-25.34-99.938L1.272,353.812h33.172v73.88v5.097v5.843c-13.684,6.521-24.709,19.145-24.709,37.562
			c0,3.117,0.382,1.941,0.918,11.504h100.292h19.125V487.688z"/>
		<polygon points="110.945,325.125 130.07,325.125 175.377,325.125 120.507,108.773 72.159,308.802 68.21,325.125 76.3,325.125 		
			"/>
		<path d="M445.632,438.307c-2.916-0.545-5.891-0.898-8.959-0.898c-3.5,0-6.867,0.392-10.166,0.966
			c-16.094,2.782-29.385,12.135-35.734,26.899c-2.725-6.761-6.895-12.776-12.078-17.739c-5.383-5.153-11.885-9.132-19.125-11.513
			c-4.982-1.645-10.289-2.562-15.826-2.562c-15.461,0-32.865,7.554-41.549,22.089c-3.461,5.795-5.584,12.661-5.584,20.655
			c0,3.117,0.383,1.941,0.918,11.504h4.666h57.375h19.125h107.74C485.45,462.271,468.237,442.505,445.632,438.307z"/>
	</g>
</g>
<g>
</g>
<g>
</g>
<g>
</g>
<g>
</g>
<g>
</g>
<g>
</g>
<g>
</g>
<g>
</g>
<g>
</g>
<g>
</g>
<g>
</g>
<g>
</g>
<g>
</g>
<g>
</g>
<g>
</g>
</svg>
